<svg xmlns="http://www.w3.org/2000/svg" viewBox="0 0 512 512" width="512" height="512" role="img" aria-label="Cyril Benhafed">
  <defs>
    <linearGradient id="bg" x1="0" y1="0" x2="1" y2="1">
      <stop offset="0" stop-color="#222b3d"/>
      <stop offset="1" stop-color="#1a202c"/>
    </linearGradient>
  </defs>
  <rect width="512" height="512" rx="116" fill="url(#bg)"/>
  <g fill="#f7fafc">
    <path transform="translate(35.44,352.74) scale(0.37799,-0.37799)" d="M366 -18Q269 -18 190.5 21.5Q112 61 66.0 139.0Q20 217 20 330Q20 416 48.0 481.0Q76 546 124.5 590.0Q173 634 236.5 656.0Q300 678 371 678Q428 678 476.0 665.0Q524 652 566 629L570 506H560L510 586Q500 605 488.0 620.5Q476 636 458 644Q443 651 428.5 654.5Q414 658 392 658Q334 658 286.5 627.0Q239 596 210.5 524.5Q182 453 182 329Q182 206 209.0 134.5Q236 63 282.5 32.5Q329 2 387 2Q419 2 438.0 6.5Q457 11 476 20Q495 28 505.0 43.5Q515 59 523 77L567 175H577L574 32Q532 10 480.0 -4.0Q428 -18 366 -18Z"/>
    <path transform="translate(251.28,352.74) scale(0.37799,-0.37799)" d="M22 0V10L40 17Q60 25 67.5 37.0Q75 49 75 69V591Q75 612 67.5 624.0Q60 636 40 643L22 650V660H309Q431 660 485.0 615.5Q539 571 539 503Q539 452 499.5 410.5Q460 369 364 352Q474 340 525.0 294.5Q576 249 576 184Q576 152 562.0 119.5Q548 87 514.5 60.0Q481 33 423.0 16.5Q365 0 276 0ZM223 353H266Q333 353 362.5 384.0Q392 415 392 492Q392 572 365.0 606.0Q338 640 277 640H223ZM223 20H273Q348 20 384.5 60.0Q421 100 421 185Q421 265 386.0 299.0Q351 333 271 333H223Z"/>
  </g>
  <rect x="64.30" y="392.74" width="383.40" height="16" rx="8.0" fill="#667eea"/>
</svg>
